mtllib ./旋风斧.mtl
o object1
g group1
usemtl mat1
v -0.0141988629475236 -0.0590014979243279 0.111460343003273
v -0.0265983287245035 0.130665242671967 0.107894293963909
v 0.0109091708436608 0.130665212869644 0.107894279062748
v -0.014198842458427 0.512518584728241 0.195302754640579
v 0.0197819788008928 0.427762150764465 0.128874838352203
v -0.0227625854313374 0.427762150764465 0.128940910100937
v -0.0265983436256647 0.225053146481514 0.128682240843773
v -0.0460263192653656 0.180414110422134 -0.0277131199836731
v -0.00242956192232668 0.180414110422134 0.0583631694316864
v 0.0332898572087288 0.310105234384537 -0.0269830636680126
v 0.0197819788008928 0.427762150764465 0.128874838352203
v 0.0197548381984234 0.427142024040222 0.128874242305756
v -0.0265983436256647 0.225053146481514 0.128682240843773
v 0.0109091671183705 0.225053146481514 0.128682255744934
v 0.0197819769382477 0.487469255924225 0.102956585586071
v 0.0197819713503122 0.544037818908691 0.0651677399873734
v -0.0227625966072083 0.544028043746948 0.0651373714208603
v -0.0227625966072083 0.544028043746948 0.0651373714208603
v -0.0227625910192728 0.487838000059128 0.102670103311539
v 0.0197819769382477 0.487469255924225 0.102956585586071
v 0.0195223670452833 0.553602337837219 0.0509591400623322
v 0.0181752517819405 0.616567730903625 0.0929251983761787
v -0.02425492182374 0.616567730903625 0.0929252207279205
v -0.0230037216097116 0.553602337837219 0.050959151238203
v 0.0197819769382477 0.487469255924225 0.102956585586071
v -0.0227625910192728 0.487838000059128 0.102670103311539
v -0.0227625854313374 0.427762150764465 0.128940910100937
v -0.0227625854313374 0.427762150764465 0.128940910100937
v 0.0197819788008928 0.427762150764465 0.128874838352203
v 0.0197819769382477 0.487469255924225 0.102956585586071
v -0.0265983436256647 0.225053146481514 0.128682240843773
v 0.0109091671183705 0.225053146481514 0.128682255744934
v 0.0109091708436608 0.16694563627243 0.159723252058029
v -0.0265983119606972 0.16694563627243 0.159723252058029
v -0.0141988629475236 -0.0590014979243279 0.111460343003273
v 0.0109091708436608 0.130665212869644 0.107894279062748
v 0.0109091708436608 0.130885094404221 0.108208440244198
v -0.0265983119606972 0.16694563627243 0.159723252058029
v 0.0109091708436608 0.130885094404221 0.108208440244198
v 0.0109091708436608 0.130665212869644 0.107894279062748
v 0.0109091708436608 0.130665212869644 0.107894279062748
v -0.0265983287245035 0.130665242671967 0.107894293963909
v -0.0265983119606972 0.16694563627243 0.159723252058029
v 0.0197819713503122 0.544037818908691 0.0651677399873734
v 0.0195223670452833 0.553602337837219 0.0509591400623322
v -0.0227625966072083 0.544028043746948 0.0651373714208603
v -0.0230037216097116 0.553602337837219 0.050959151238203
v -0.014198930002749 0.00706287939101458 -0.163634866476059
v 0.0109090972691774 0.0850896537303925 -0.176068440079689
v -0.0265984050929546 0.0850896537303925 -0.176068425178528
v 0.000410663691582158 0.54297000169754 -0.368256330490112
v -0.0227626673877239 0.438707590103149 -0.197487488389015
v 0.0197818987071514 0.438707590103149 -0.197421446442604
v 0.00074779725400731 0.180414110422134 -0.0969265699386597
v -0.0460263192653656 0.180414110422134 -0.0277131199836731
v -0.0265984255820513 0.225053161382675 -0.182648375630379
v 0.0109090879559517 0.225053161382675 -0.18264839053154
v 0.0197819117456675 0.487469255924225 -0.156922712922096
v -0.022762643173337 0.544028103351593 -0.119103468954563
v 0.0197819247841835 0.544037818908691 -0.119133822619915
v -0.022762643173337 0.544028103351593 -0.119103468954563
v 0.0197819117456675 0.487469255924225 -0.156922712922096
v -0.022762656211853 0.48783802986145 -0.1566361784935
v 0.0195223279297352 0.553602337837219 -0.104925259947777
v -0.0242549739778042 0.616047739982605 -0.110009871423244
v 0.0181751996278763 0.616047739982605 -0.110009878873825
v -0.0230037625879049 0.553602337837219 -0.104925245046616
v 0.0197819117456675 0.487469255924225 -0.156922712922096
v -0.0227626673877239 0.438707590103149 -0.197487488389015
v -0.022762656211853 0.48783802986145 -0.1566361784935
v -0.0227626673877239 0.438707590103149 -0.197487488389015
v 0.0197819117456675 0.487469255924225 -0.156922712922096
v 0.0197818987071514 0.438707590103149 -0.197421446442604
v -0.0265984255820513 0.225053161382675 -0.182648375630379
v 0.0109090860933065 0.184254840016365 -0.186689019203186
v 0.0109090879559517 0.225053161382675 -0.18264839053154
v -0.0265984013676643 0.184254840016365 -0.186688974499702
v 0.0109091056510806 0.143875896930695 -0.158631235361099
v 0.0109090860933065 0.184254840016365 -0.186689019203186
v -0.0265984013676643 0.184254840016365 -0.186688974499702
v -0.0265983957797289 0.143875896930695 -0.158631190657616
v -0.0265983957797289 0.143875896930695 -0.158631190657616
v 0.0109091056510806 0.143875896930695 -0.158631235361099
v 0.0197819247841835 0.544037818908691 -0.119133822619915
v -0.022762643173337 0.544028103351593 -0.119103468954563
v 0.0195223279297352 0.553602337837219 -0.104925259947777
v -0.0230037625879049 0.553602337837219 -0.104925245046616
v 0.0195223279297352 0.553602337837219 -0.104925259947777
v -0.022762643173337 0.544028103351593 -0.119103468954563
v -3.75500626148551E-08 -0.553186058998108 -0.0445987209677696
v 0.0252166427671909 0.0672213807702065 -0.019382081925869
v 0.0252166241407394 -0.553186118602753 -0.0193820856511593
v -1.71613390165248E-08 0.0672213807702065 -0.0445987172424793
v 0.0252166241407394 -0.553186118602753 -0.0193820856511593
v -2.75029377050373E-09 0.0679881349205971 0.01236582826823
v -2.47964404564982E-08 -0.553186118602753 0.005834577139467
v 0.0252166427671909 0.0672213807702065 -0.019382081925869
v -2.47964404564982E-08 -0.553186118602753 0.005834577139467
v -0.0252166409045458 0.0672213807702065 -0.0193820670247078
v -0.0252166651189327 -0.553185999393463 -0.0193820707499981
v -2.75029377050373E-09 0.0679881349205971 0.01236582826823
v -0.0252166651189327 -0.553185999393463 -0.0193820707499981
v -1.71613390165248E-08 0.0672213807702065 -0.0445987172424793
v -3.75500626148551E-08 -0.553186058998108 -0.0445987209677696
v -0.0252166409045458 0.0672213807702065 -0.0193820670247078
v 0.0252166241407394 -0.553186118602753 -0.0193820856511593
v -4.87097082668697E-08 -0.564209401607513 -0.0870496779680252
v -3.75500626148551E-08 -0.553186058998108 -0.0445987209677696
v 0.0252166241407394 -0.553186118602753 -0.0193820856511593
v -2.47964404564982E-08 -0.553186118602753 0.005834577139467
v -1.44860088369114E-08 -0.564209401607513 0.0482855327427387
v -0.0252166651189327 -0.553185999393463 -0.0193820707499981
v -0.0252166651189327 -0.553185999393463 -0.0193820707499981
v -4.47078321030858E-08 -0.654218375682831 -0.0527890808880329
v 0.0252166241407394 -0.553186118602753 -0.0193820856511593
v 0.0203114524483681 -0.654218375682831 -0.019382057711482
v -4.87097082668697E-08 -0.564209401607513 -0.0870496779680252
v 0.0203114524483681 -0.654218375682831 -0.019382057711482
v -1.44860088369114E-08 -0.564209401607513 0.0482855327427387
v -2.7811829284019E-08 -0.654218375682831 0.0140249626711011
v 0.0252166241407394 -0.553186118602753 -0.0193820856511593
v -2.7811829284019E-08 -0.654218375682831 0.0140249626711011
v -0.0252166651189327 -0.553185999393463 -0.0193820707499981
v -0.0203115101903677 -0.654218375682831 -0.0193820744752884
v -1.44860088369114E-08 -0.564209401607513 0.0482855327427387
v -0.0203115101903677 -0.654218375682831 -0.0193820744752884
v -4.87097082668697E-08 -0.564209401607513 -0.0870496779680252
v -4.47078321030858E-08 -0.654218375682831 -0.0527890808880329
v -0.0252166651189327 -0.553185999393463 -0.0193820707499981
v -4.6779490503468E-08 -0.689019322395325 -0.0536430887877941
v 0.0208306536078453 -0.689019322395325 -0.0193820893764496
v 0.0208306536078453 -0.689019322395325 -0.0193820893764496
v -2.94515736243284E-08 -0.689019322395325 0.0148789370432496
v -2.94515736243284E-08 -0.689019322395325 0.0148789370432496
v -0.0208307225257158 -0.689019322395325 -0.0193820763379335
v -0.0208307225257158 -0.689019322395325 -0.0193820763379335
v -4.6779490503468E-08 -0.689019322395325 -0.0536430887877941
v -3.98486150743338E-08 -0.722648501396179 -0.0193820837885141
v -3.98486150743338E-08 -0.722648501396179 -0.0193820837885141
v -3.98486150743338E-08 -0.722648501396179 -0.0193820837885141
v -3.98486150743338E-08 -0.722648501396179 -0.0193820837885141
v 0.0486483462154865 0.0692668557167053 -0.0279151853173971
v 0.000747794169001281 0.0736734643578529 -0.0882433131337166
v 0.000747828686144203 0.0755077973008156 0.0480382479727268
v 0.0486483462154865 0.0692668557167053 -0.0279151853173971
v -0.04715271666646 0.0692668557167053 -0.0279151573777199
v 0.000747828686144203 0.0755077973008156 0.0480382479727268
v 0.000747794169001281 0.0736734643578529 -0.0882433131337166
v -0.04715271666646 0.0692668557167053 -0.0279151573777199
v 0.0475219637155533 0.180414110422134 -0.0277131479233503
v 0.00074779725400731 0.180414110422134 -0.0969265699386597
v -0.00242956192232668 0.180414110422134 0.0583631694316864
v 0.0475219637155533 0.180414110422134 -0.0277131479233503
v -0.0460263192653656 0.180414110422134 -0.0277131199836731
v -0.00242956192232668 0.180414110422134 0.0583631694316864
v 0.00074779725400731 0.180414110422134 -0.0969265699386597
v -0.0460263192653656 0.180414110422134 -0.0277131199836731
v -0.0196088962256908 0.682562172412872 -0.217544570565224
v 0.0181751996278763 0.616047739982605 -0.110009878873825
v -0.0242549739778042 0.616047739982605 -0.110009871423244
v 0.013529060408473 0.682562172412872 -0.217544540762901
v 0.00372597225941718 0.734221220016479 -0.27851665019989
v 0.0181752722710371 0.575746238231659 0.184466749429703
v -0.00303977984003723 0.563587188720703 0.353655993938446
v -0.0242549013346434 0.575746238231659 0.184466764330864
v -0.0242549125105143 0.613874733448029 0.13124243915081
v 0.0181752517819405 0.616567730903625 0.0929251983761787
v 0.0181752610951662 0.613874733448029 0.131242424249649
v -0.02425492182374 0.616567730903625 0.0929252207279205
v -0.0242549013346434 0.575746238231659 0.184466764330864
v 0.0181752722710371 0.575746238231659 0.184466749429703
v 0.0109091708436608 0.16694563627243 0.159723252058029
v 0.0109091708436608 0.130885094404221 0.108208440244198
v 0.0197548381984234 0.427142053842545 0.128874227404594
v 0.0197819788008928 0.427762180566788 0.128874838352203
v -0.0141987949609756 0.481170296669006 0.390154421329498
v -0.0141987903043628 0.393927782773972 0.425016313791275
v -0.014198842458427 0.512518644332886 0.195302754640579
v 0.0109091671183705 0.225053161382675 0.128682255744934
v 0.0475219637155533 0.180414140224457 -0.0277131777256727
v 0.0332898572087288 0.310105234384537 -0.0269830785691738
v 0.0475219637155533 0.180414140224457 -0.0277131777256727
v 0.0109091671183705 0.225053161382675 0.128682255744934
v -0.00242956192232668 0.180414140224457 0.058363139629364
v 0.0197819713503122 0.544037878513336 0.0651677250862122
v 0.0197819769382477 0.487469285726547 0.10295657813549
v 0.0265021547675133 0.47964945435524 -0.0269830711185932
v 0.0181751996278763 0.616047739982605 -0.11000993847847
v 0.0181752517819405 0.616567730903625 0.0929251834750175
v 0.0195223670452833 0.553602337837219 0.050959125161171
v 0.0265021547675133 0.47964945435524 -0.0269830711185932
v 0.0197819769382477 0.487469285726547 0.10295657813549
v 0.0197819769382477 0.487469285726547 0.10295657813549
v 0.0197819788008928 0.427762180566788 0.128874838352203
v 0.0109091671183705 0.225053161382675 0.128682255744934
v -0.0141988014802337 0.226010978221893 0.412005126476288
v -0.0141987996175885 0.0809580907225609 0.331820219755173
v -0.0141987996175885 0.0809580907225609 0.331820219755173
v 0.0109091708436608 0.166945651173592 0.159723237156868
v 0.0109091671183705 0.225053161382675 0.128682255744934
v -0.0141988433897495 -0.0336140431463718 0.185162365436554
v 0.0109090879559517 0.225053176283836 -0.182648450136185
v -0.0166090074926615 0.422016888856888 -0.422151982784271
v 0.0197818987071514 0.438707619905472 -0.197421476244926
v -0.014199011027813 0.298451125621796 -0.425821036100388
v 0.000410663691582158 0.542970061302185 -0.368256449699402
v 0.00074779725400731 0.180414140224457 -0.0969266295433044
v 0.0109090879559517 0.225053176283836 -0.182648450136185
v 0.0475219637155533 0.180414140224457 -0.0277131777256727
v 0.0197819247841835 0.544037878513336 -0.11913388222456
v 0.0197819117456675 0.487469285726547 -0.156922772526741
v 0.0195223279297352 0.553602337837219 -0.104925319552422
v 0.0197819117456675 0.487469285726547 -0.156922772526741
v 0.0265021547675133 0.47964945435524 -0.0269830711185932
v 0.0197819117456675 0.487469285726547 -0.156922772526741
v -0.0141989756375551 0.175758048892021 -0.381637871265411
v 0.0109090860933065 0.184254869818687 -0.186689049005508
v -0.0141989467665553 0.042406614869833 -0.237512975931168
v 0.0109091056510806 0.143875926733017 -0.158631265163422
v 0.0109090972691774 0.0850896537303925 -0.176068499684334
v -0.014198930002749 0.00706287939101458 -0.163634896278381
v 0.013529060408473 0.682562172412872 -0.217544600367546
v -0.00303990254178643 0.818022668361664 -0.183921903371811
v -0.00303990254178643 0.818022668361664 -0.183921903371811
v 0.013529060408473 0.682562172412872 -0.217544600367546
v 0.00372597225941718 0.734221220016479 -0.278516709804535
v -0.00303985364735127 0.831639230251312 0.00724025350064039
v 0.0181752610951662 0.613874733448029 0.131242409348488
v -0.00303985364735127 0.831639230251312 0.00724025350064039
v -0.00429129507392645 0.774591326713562 0.176139548420906
v 0.0181752610951662 0.613874733448029 0.131242409348488
v 0.0181752722710371 0.575746238231659 0.184466749429703
v -0.00429129507392645 0.774591326713562 0.176139548420906
v -0.00303979380987585 0.680417776107788 0.273947030305862
v 0.0181752722710371 0.575746238231659 0.184466749429703
v 0.0181752610951662 0.613874733448029 0.131242409348488
v 0.0181752722710371 0.575746238231659 0.184466749429703
v -0.00303979380987585 0.680417776107788 0.273947030305862
v -0.00303977984003723 0.563587188720703 0.353656023740768
v -0.0141987903043628 0.393927782773972 0.425016313791275
v -0.0141988014802337 0.226010978221893 0.412005126476288
v 0.0109091671183705 0.225053161382675 0.128682255744934
v 0.0109091671183705 0.225053161382675 0.128682255744934
v -0.0141988629475236 -0.0590014979243279 0.111460328102112
v 0.0109091708436608 0.130885124206543 0.108208432793617
v -0.0265983436256647 0.225053176283836 0.128682225942612
v -0.0141988014802337 0.226010978221893 0.412005126476288
v -0.0141987903043628 0.393927782773972 0.425016313791275
v -0.0141987949609756 0.481170296669006 0.390154421329498
v -0.0227625854313374 0.427762180566788 0.128940910100937
v -0.014198842458427 0.512518644332886 0.195302754640579
v -0.0460263192653656 0.180414140224457 -0.0277131497859955
v -0.0265983436256647 0.225053176283836 0.128682225942612
v -0.0362705029547215 0.310105234384537 -0.0269830580800772
v -0.0227625854313374 0.427762180566788 0.128940910100937
v -0.0295336693525314 0.480025321245193 -0.0269830543547869
v -0.0227625910192728 0.48783802986145 0.102670095860958
v -0.0227625966072083 0.544028103351593 0.0651373490691185
v -0.0230037216097116 0.553602337837219 0.050959125161171
v -0.02425492182374 0.616567730903625 0.0929251983761787
v -0.0242549739778042 0.616047739982605 -0.110009923577309
v -0.0227625910192728 0.48783802986145 0.102670095860958
v -0.0295336693525314 0.480025321245193 -0.0269830543547869
v -0.0265983119606972 0.166945651173592 0.159723252058029
v -0.0141987996175885 0.0809580907225609 0.331820219755173
v -0.0265983287245035 0.130665257573128 0.107894279062748
v -0.0141988433897495 -0.0336140431463718 0.185162365436554
v -0.0265984255820513 0.225053176283836 -0.182648435235023
v -0.0166090074926615 0.422016888856888 -0.422151982784271
v -0.014199011027813 0.298451125621796 -0.425821036100388
v -0.0227626673877239 0.438707619905472 -0.197487518191338
v 0.000410663691582158 0.542970061302185 -0.368256449699402
v -0.022762643173337 0.544028103351593 -0.119103491306305
v -0.022762656211853 0.48783802986145 -0.156636208295822
v -0.0230037625879049 0.553602337837219 -0.104925274848938
v -0.022762656211853 0.48783802986145 -0.156636208295822
v -0.0265984013676643 0.184254869818687 -0.186689034104347
v -0.0141989756375551 0.175758048892021 -0.381637871265411
v -0.0265983957797289 0.143875926733017 -0.158631220459938
v -0.0141989467665553 0.042406614869833 -0.237512975931168
v -0.0265984050929546 0.0850896835327148 -0.176068484783173
v -0.014198930002749 0.00706287939101458 -0.163634896278381
v -0.00303990254178643 0.818022668361664 -0.183921903371811
v -0.0196088962256908 0.682562172412872 -0.217544600367546
v 0.00372597225941718 0.734221220016479 -0.278516709804535
v -0.00303985364735127 0.831639230251312 0.00724025350064039
v -0.00429129507392645 0.774591326713562 0.176139548420906
v -0.0242549125105143 0.613874733448029 0.131242424249649
v -0.00303979380987585 0.680417776107788 0.273947030305862
v -0.0242549013346434 0.575746238231659 0.184466764330864
v -0.00303977984003723 0.563587188720703 0.353656023740768
v -0.0141988629475236 -0.0590014979243279 0.111460328102112
# 292 vertices
vt 0.932695746421814 0.493764698505402
vt 0.947145342826843 0.588096439838409
vt 0.973525404930115 0.58868271112442
vt 0.778791487216949 0.991351246833801
vt 0.927780389785767 0.929084360599518
vt 0.893058001995087 0.878432929515839
vt 0.258167922496796 0.538804352283478
vt 0.0998652204871178 0.485693216323853
vt 0.200530752539635 0.485693216323853
vt 0.0992667749524117 0.639998614788055
vt 0.250739842653275 0.780187726020813
vt 0.250762552022934 0.779449284076691
vt 0.258167922496796 0.538804352283478
vt 0.276624917984009 0.51111888885498
vt 0.512837946414948 0.0141299366950989
vt 0.514672935009003 0.0794483423233032
vt 0.533183455467224 0.0718759894371033
vt 0.533183455467224 0.0718759894371033
vt 0.519770503044128 0.0120512843132019
vt 0.512837946414948 0.0141299366950989
vt 0.51869797706604 0.091554582118988
vt 0.483884394168854 0.150432884693146
vt 0.476239442825317 0.111116170883179
vt 0.496855318546295 0.078449010848999
vt 0.253540426492691 0.852256000041962
vt 0.282797515392303 0.861424446105957
vt 0.296663492918015 0.817320168018341
vt 0.296663492918015 0.817320168018341
vt 0.268213927745819 0.792201161384583
vt 0.253540426492691 0.852256000041962
vt 0.827430903911591 0.656391620635986
vt 0.863778471946716 0.668997764587402
vt 0.871757686138153 0.627345561981201
vt 0.820870935916901 0.611587762832642
vt 0.878237724304199 0.416507959365845
vt 0.914478600025177 0.583047747612
vt 0.914056658744812 0.58327728509903
vt 0.820870935916901 0.611587762832642
vt 0.924386262893677 0.575424134731293
vt 0.924707174301147 0.575107514858246
vt 0.924707174301147 0.575107514858246
vt 0.885549247264862 0.580200374126434
vt 0.820870935916901 0.611587762832642
vt 0.516353130340576 0.0802884697914124
vt 0.529619216918945 0.091554582118988
vt 0.516381502151489 0.0802769660949707
vt 0.529619216918945 0.091554582118988
vt 0.244855761528015 0.290875792503357
vt 0.221555069088936 0.366370022296906
vt 0.252188295125961 0.372277140617371
vt 0.405208438634872 0.909078478813171
vt 0.25020757317543 0.780187785625458
vt 0.241078928112984 0.853884816169739
vt 0.200628980994225 0.485693335533142
vt 0.0998652204871178 0.485693216323853
vt 0.25758159160614 0.538804411888123
vt 0.277884274721146 0.511118948459625
vt 0.627493500709534 0.0475489497184753
vt 0.715415060520172 0.0307724475860596
vt 0.721899628639221 0.0579144358634949
vt 0.715415060520172 0.0307724475860596
vt 0.627493500709534 0.0475489497184753
vt 0.628056943416595 0.0241497159004211
vt 0.672936677932739 0.0964997410774231
vt 0.717202544212341 0.150406837463379
vt 0.682874083518982 0.163063704967499
vt 0.696102678775787 0.0978096127510071
vt 0.411609590053558 0.0999454259872437
vt 0.454815000295639 0.149787485599518
vt 0.416407525539398 0.119321405887604
vt 0.454815000295639 0.149787485599518
vt 0.411609590053558 0.0999454259872437
vt 0.456554889678955 0.126359224319458
vt 0.258167922496796 0.538804352283478
vt 0.23304508626461 0.496170282363892
vt 0.237178266048431 0.51811009645462
vt 0.26089346408844 0.490263104438782
vt 0.212832301855087 0.436313331127167
vt 0.23304508626461 0.496170282363892
vt 0.26089346408844 0.490263104438782
vt 0.237895846366882 0.442220509052277
vt 0.237895846366882 0.442220509052277
vt 0.212832301855087 0.436313331127167
vt 0.691653549671173 0.0826137661933899
vt 0.714791119098663 0.082602322101593
vt 0.672936677932739 0.0964997410774231
vt 0.696102678775787 0.0978096127510071
vt 0.672936677932739 0.0964997410774231
vt 0.714791119098663 0.082602322101593
vt 0.0560530722141266 0.288853943347931
vt 0.00503548234701157 0.780647039413452
vt 0.0050356350839138 0.288853883743286
vt 0.0560529232025146 0.780647039413452
vt 0.0050356350839138 0.288853883743286
vt 0.0563848689198494 0.781530201435089
vt 0.0552292764186859 0.288853883743286
vt 0.00503548234701157 0.780647039413452
vt 0.0552292764186859 0.288853883743286
vt 0.00503548234701157 0.780647039413452
vt 0.0050356350839138 0.28885406255722
vt 0.0563848689198494 0.781530201435089
vt 0.0050356350839138 0.28885406255722
vt 0.0560529232025146 0.780647039413452
vt 0.0560530722141266 0.288853943347931
vt 0.00503548234701157 0.780647039413452
vt 0.0050356350839138 0.288853883743286
vt 0.141938447952271 0.276158809661865
vt 0.0560530722141266 0.288853943347931
vt 0.0050356350839138 0.288853883743286
vt 0.0552292764186859 0.288853883743286
vt 0.14111465215683 0.276158690452576
vt 0.0050356350839138 0.28885406255722
vt 0.0050356350839138 0.288853883743286
vt 0.0726236552000046 0.0750029683113098
vt 0.0050356350839138 0.288853883743286
vt 0.00503579154610634 0.0750029683113098
vt 0.141938447952271 0.276158809661865
vt 0.00503579154610634 0.0750029683113098
vt 0.14111465215683 0.276158690452576
vt 0.0717997029423714 0.0750029683113098
vt 0.0050356350839138 0.288853883743286
vt 0.0717997029423714 0.0750029683113098
vt 0.0050356350839138 0.288853883743286
vt 0.00503579154610634 0.0750029683113098
vt 0.14111465215683 0.276158690452576
vt 0.00503579154610634 0.0750029683113098
vt 0.141938447952271 0.276158809661865
vt 0.0726236552000046 0.0750029683113098
vt 0.0050356350839138 0.288853883743286
vt 0.0743513628840446 0.034924328327179
vt 0.00503579154610634 0.034924328327179
vt 0.00503579154610634 0.034924328327179
vt 0.0735274106264114 0.034924328327179
vt 0.0735274106264114 0.034924328327179
vt 0.00503579154610634 0.034924328327179
vt 0.00503579154610634 0.034924328327179
vt 0.0743513628840446 0.034924328327179
vt 0.00503579154610634 -0.00380480289459229
vt 0.00503579154610634 -0.00380480289459229
vt 0.00503579154610634 -0.00380480289459229
vt 0.00503579154610634 -0.00380480289459229
vt 0.00767425447702408 0.899672865867615
vt 0.0994439944624901 0.899672865867615
vt 0.0984762981534004 0.901261210441589
vt 0.00767425447702408 0.899672865867615
vt 0.00767425447702408 0.899672865867615
vt 0.0984762981534004 0.901261210441589
vt 0.0994439944624901 0.899672865867615
vt 0.00767425447702408 0.899672865867615
vt 0.00736688449978828 0.995915830135345
vt 0.112652637064457 0.995915949344635
vt 0.114182330667973 0.995915830135345
vt 0.00736688449978828 0.995915830135345
vt 0.00736688449978828 0.995915830135345
vt 0.114182330667973 0.995915830135345
vt 0.112652637064457 0.995915949344635
vt 0.00736688449978828 0.995915830135345
vt 0.850382924079895 0.274787068367004
vt 0.682874083518982 0.163063704967499
vt 0.717202544212341 0.150406837463379
vt 0.794850528240204 0.295802712440491
vt 0.852107107639313 0.400785386562347
vt 0.39943140745163 0.160089254379272
vt 0.290614634752274 0.128226399421692
vt 0.404968500137329 0.117638170719147
vt 0.4459248483181 0.115588963031769
vt 0.483884394168854 0.150432884693146
vt 0.448109120130539 0.152721345424652
vt 0.476239442825317 0.111116170883179
vt 0.408244907855988 0.0826900005340576
vt 0.404968500137329 0.114361763000488
vt 0.871757686138153 0.627345561981201
vt 0.924386262893677 0.575424134731293
vt 0.894533276557922 0.877006232738495
vt 0.894532442092896 0.877653419971466
vt 0.536431610584259 0.937922954559326
vt 0.516197502613068 0.867023944854736
vt 0.782303631305695 0.994480192661285
vt 0.258167922496796 0.538804352283478
vt 0.0998652204871178 0.485693216323853
vt 0.0992667749524117 0.639998614788055
vt 0.0998652204871178 0.485693216323853
vt 0.258167922496796 0.538804352283478
vt 0.200530752539635 0.485693216323853
vt 0.516353130340576 0.0802884697914124
vt 0.511997759342194 0.0107695460319519
vt 0.59765625 0.00390625
vt 0.682093739509583 0.162925899028778
vt 0.490437150001526 0.165722668170929
vt 0.529619216918945 0.091554582118988
vt 0.0992667749524117 0.853154063224792
vt 0.241526991128922 0.853348135948181
vt 0.241526991128922 0.853348135948181
vt 0.250739842653275 0.780187726020813
vt 0.893938422203064 0.648330807685852
vt 0.517063200473785 0.688090145587921
vt 0.628461182117462 0.538554847240448
vt 0.628461182117462 0.538554847240448
vt 0.844860553741455 0.620910942554474
vt 0.893938422203064 0.648330807685852
vt 0.821764349937439 0.435595631599426
vt 0.25758159160614 0.538804411888123
vt 0.441204875707626 0.729103922843933
vt 0.250153422355652 0.780187785625458
vt 0.437155038118362 0.569945633411407
vt 0.405208438634872 0.909078478813171
vt 0.200628980994225 0.485693335533142
vt 0.25758159160614 0.538804411888123
vt 0.0998652204871178 0.485693216323853
vt 0.688428223133087 0.0802885293960571
vt 0.69140625 0.01171875
vt 0.675162136554718 0.0915546417236328
vt 0.24094058573246 0.853348195552826
vt 0.0992667749524117 0.853154063224792
vt 0.24094058573246 0.853348195552826
vt 0.382443428039551 0.399735391139984
vt 0.26089346408844 0.490263104438782
vt 0.284070909023285 0.315409541130066
vt 0.237895846366882 0.442220509052277
vt 0.252188295125961 0.372277140617371
vt 0.244855761528015 0.290875792503357
vt 0.791625142097473 0.293477475643158
vt 0.724307954311371 0.437439143657684
vt 0.724307954311371 0.437439143657684
vt 0.791625142097473 0.293477475643158
vt 0.848881840705872 0.398460149765015
vt 0.572000086307526 0.449276685714722
vt 0.454661905765533 0.162550568580627
vt 0.572000086307526 0.449276685714722
vt 0.399352848529816 0.364098846912384
vt 0.454661905765533 0.162550568580627
vt 0.404968500137329 0.117638170719147
vt 0.399352848529816 0.364098846912384
vt 0.300652861595154 0.25306910276413
vt 0.404968500137329 0.117638170719147
vt 0.454661905765533 0.162550568580627
vt 0.404968500137329 0.117638170719147
vt 0.300652861595154 0.25306910276413
vt 0.290614634752274 0.128226399421692
vt 0.516197502613068 0.867023944854736
vt 0.517063200473785 0.688090145587921
vt 0.893938422203064 0.648330807685852
vt 0.893938422203064 0.648330807685852
vt 0.878237724304199 0.416507959365845
vt 0.914056658744812 0.58327728509903
vt 0.893938422203064 0.648330807685852
vt 0.517063200473785 0.688090145587921
vt 0.516197502613068 0.867023944854736
vt 0.536431610584259 0.937922954559326
vt 0.89444363117218 0.877653419971466
vt 0.782303631305695 0.994480192661285
vt 0.0998652204871178 0.485693216323853
vt 0.258167922496796 0.538804352283478
vt 0.0992667749524117 0.639998614788055
vt 0.250794023275375 0.780187726020813
vt 0.59765625 0.00390625
vt 0.512209594249725 0.0112111568450928
vt 0.516381502151489 0.0802769660949707
vt 0.529619216918945 0.091554582118988
vt 0.490437150001526 0.165722668170929
vt 0.682093739509583 0.162925899028778
vt 0.241296604275703 0.853779554367065
vt 0.0992667749524117 0.853601217269897
vt 0.8448606133461 0.620910942554474
vt 0.628461182117462 0.538554847240448
vt 0.914478600025177 0.583047747612
vt 0.821764349937439 0.435595631599426
vt 0.25758159160614 0.538804411888123
vt 0.441204875707626 0.729103922843933
vt 0.437155038118362 0.569945633411407
vt 0.25020757317543 0.780187785625458
vt 0.405208438634872 0.909078478813171
vt 0.688399732112885 0.0802770256996155
vt 0.69140625 0.01171875
vt 0.675162136554718 0.0915546417236328
vt 0.24071004986763 0.85377961397171
vt 0.26089346408844 0.490263104438782
vt 0.382443428039551 0.399735391139984
vt 0.237895846366882 0.442220509052277
vt 0.284070909023285 0.315409541130066
vt 0.252188295125961 0.372277140617371
vt 0.244855761528015 0.290875792503357
vt 0.724307954311371 0.437439143657684
vt 0.791625142097473 0.293477475643158
vt 0.848881840705872 0.398460149765015
vt 0.572000086307526 0.449276685714722
vt 0.399352848529816 0.364098846912384
vt 0.454661905765533 0.162550568580627
vt 0.300652861595154 0.25306910276413
vt 0.404968500137329 0.117638170719147
vt 0.290614634752274 0.128226399421692
vt 0.878237724304199 0.416507959365845
# 292 texture coordinates
f 3/3 1/1 2/2
f 6/6 4/4 5/5
f 9/9 7/7 8/8
f 12/12 10/10 11/11
f 14/14 13/13 9/9
f 17/17 15/15 16/16
f 20/20 18/18 19/19
f 23/23 21/21 22/22
f 21/21 23/23 24/24
f 27/27 25/25 26/26
f 30/30 28/28 29/29
f 33/33 31/31 32/32
f 31/31 33/33 34/34
f 37/37 35/35 36/36
f 40/40 38/38 39/39
f 43/43 41/41 42/42
f 46/46 44/44 45/45
f 45/45 47/47 46/46
f 50/50 48/48 49/49
f 53/53 51/51 52/52
f 56/56 54/54 55/55
f 54/54 56/56 57/57
f 60/60 58/58 59/59
f 63/63 61/61 62/62
f 66/66 64/64 65/65
f 67/67 65/65 64/64
f 70/70 68/68 69/69
f 73/73 71/71 72/72
f 76/76 74/74 75/75
f 77/77 75/75 74/74
f 79/79 77/77 78/78
f 81/81 78/78 80/80
f 83/83 82/82 49/49
f 50/50 49/49 82/82
f 86/86 84/84 85/85
f 89/89 87/87 88/88
f 92/92 90/90 91/91
f 93/93 91/91 90/90
f 96/96 94/94 95/95
f 97/97 95/95 94/94
f 100/100 98/98 99/99
f 101/101 99/99 98/98
f 104/104 102/102 103/103
f 105/105 103/103 102/102
f 108/108 106/106 107/107
f 111/111 109/109 110/110
f 110/110 112/112 111/111
f 107/107 113/113 108/108
f 116/116 114/114 115/115
f 117/117 115/115 114/114
f 120/120 118/118 119/119
f 121/121 119/119 118/118
f 124/124 122/122 123/123
f 125/125 123/123 122/122
f 128/128 126/126 127/127
f 129/129 127/127 126/126
f 131/131 130/130 116/116
f 114/114 116/116 130/130
f 133/133 132/132 120/120
f 118/118 120/120 132/132
f 135/135 134/134 124/124
f 122/122 124/124 134/134
f 137/137 136/136 128/128
f 126/126 128/128 136/136
f 130/130 131/131 138/138
f 132/132 133/133 139/139
f 134/134 135/135 140/140
f 136/136 137/137 141/141
f 143/143 142/142 91/91
f 91/91 93/93 143/143
f 97/97 144/144 95/95
f 144/144 97/97 145/145
f 147/147 146/146 99/99
f 99/99 101/101 147/147
f 149/149 148/148 105/105
f 103/103 105/105 148/148
f 151/151 150/150 143/143
f 142/142 143/143 150/150
f 153/153 152/152 145/145
f 144/144 145/145 152/152
f 155/155 154/154 147/147
f 146/146 147/147 154/154
f 157/157 156/156 149/149
f 148/148 149/149 156/156
f 160/160 158/158 159/159
f 161/161 159/159 158/158
f 161/161 158/158 162/162
f 165/165 163/163 164/164
f 168/168 166/166 167/167
f 169/169 167/167 166/166
f 171/171 170/170 168/168
f 166/166 168/168 170/170
f 173/173 43/43 172/172
f 176/176 174/174 175/175
f 174/174 176/176 177/177
f 176/176 175/175 178/178
f 181/181 179/179 180/180
f 184/184 182/182 183/183
f 187/187 185/185 186/186
f 189/189 187/187 188/188
f 187/187 189/189 190/190
f 192/192 181/181 191/191
f 181/181 193/193 194/194
f 197/197 195/195 196/196
f 200/200 198/198 199/199
f 201/201 199/199 198/198
f 187/187 190/190 185/185
f 204/204 202/202 203/203
f 205/205 203/203 202/202
f 206/206 204/204 203/203
f 209/209 207/207 208/208
f 202/202 181/181 180/180
f 204/204 181/181 202/202
f 211/211 210/210 187/187
f 212/212 188/188 187/187
f 214/214 181/181 213/213
f 204/204 215/215 181/181
f 205/205 202/202 216/216
f 217/217 216/216 202/202
f 216/216 217/217 218/218
f 219/219 218/218 217/217
f 218/218 220/220 221/221
f 220/220 218/218 219/219
f 210/210 212/212 187/187
f 188/188 222/222 223/223
f 226/226 224/224 225/225
f 188/188 223/223 189/189
f 227/227 189/189 223/223
f 230/230 228/228 229/229
f 189/189 227/227 231/231
f 234/234 232/232 233/233
f 236/236 233/233 235/235
f 239/239 237/237 238/238
f 242/242 240/240 241/241
f 177/177 243/243 174/174
f 179/179 181/181 12/12
f 201/201 244/244 245/245
f 199/199 201/201 245/245
f 248/248 246/246 247/247
f 248/248 249/249 250/250
f 251/251 250/250 249/249
f 254/254 252/252 253/253
f 254/254 253/253 255/255
f 258/258 256/256 257/257
f 260/260 256/256 259/259
f 256/256 260/260 261/261
f 254/254 262/262 263/263
f 262/262 254/254 255/255
f 264/264 247/247 246/246
f 247/247 264/264 265/265
f 266/266 265/265 264/264
f 265/265 266/266 267/267
f 256/256 258/258 259/259
f 270/270 268/268 269/269
f 271/271 269/269 268/268
f 269/269 271/271 272/272
f 252/252 254/254 268/268
f 271/271 268/268 254/254
f 274/274 256/256 273/273
f 275/275 256/256 261/261
f 263/263 276/276 254/254
f 271/271 254/254 276/276
f 268/268 270/270 277/277
f 278/278 277/277 270/270
f 277/277 278/278 279/279
f 280/280 279/279 278/278
f 279/279 280/280 281/281
f 282/282 281/281 280/280
f 275/275 273/273 256/256
f 261/261 283/283 284/284
f 285/285 284/284 283/283
f 261/261 260/260 283/283
f 286/286 283/283 260/260
f 288/288 287/287 260/260
f 286/286 260/260 287/287
f 290/290 289/289 288/288
f 287/287 288/288 289/289
f 289/289 290/290 291/291
f 246/246 248/248 250/250
f 267/267 266/266 292/292
# 180 faces

